<?xml version="1.0" standalone="no"?><svg xmlns:xlink="http://www.w3.org/1999/xlink" xmlns="http://www.w3.org/2000/svg" viewBox="0 0 1000 583.3404377895066" preserveAspectRatio="xMaxYMax slice"><g transform="scale(1.291719304228314)"><rect x="0" y="0" width="774.1714285714286" height="451.6" fill="#ffffff"/><circle cx="32.26" cy="32.26" r="6.45" fill="#ff91ab"/><circle cx="96.77" cy="32.26" r="6.45" fill="#5f7aea"/><circle cx="161.28" cy="32.26" r="6.45" fill="#ff86a3"/><circle cx="225.79999999999998" cy="32.26" r="6.45" fill="#ff7192"/><circle cx="290.31" cy="32.26" r="6.45" fill="#f5f6fe"/><circle cx="354.83" cy="32.26" r="6.45" fill="#ff7f9d"/><circle cx="419.34" cy="32.26" r="6.45" fill="#ffa1b8"/><circle cx="483.86" cy="32.26" r="6.45" fill="#fbfcfe"/><circle cx="548.37" cy="32.26" r="6.45" fill="#6e87ec"/><circle cx="612.88" cy="32.26" r="6.45" fill="#ff7192"/><circle cx="677.4000000000001" cy="32.26" r="6.45" fill="#ffa8bd"/><circle cx="741.9100000000001" cy="32.26" r="6.45" fill="#859aef"/><circle cx="32.26" cy="96.77" r="6.45" fill="#4060e6"/><circle cx="96.77" cy="96.77" r="6.45" fill="#ffc8d5"/><circle cx="161.28" cy="96.77" r="6.45" fill="#607bea"/><circle cx="225.79999999999998" cy="96.77" r="6.45" fill="#eaeefc"/><circle cx="290.31" cy="96.77" r="6.45" fill="#637eeb"/><circle cx="354.83" cy="96.77" r="6.45" fill="#ff7092"/><circle cx="419.34" cy="96.77" r="6.45" fill="#cad3f8"/><circle cx="483.86" cy="96.77" r="6.45" fill="#2b4fe4"/><circle cx="548.37" cy="96.77" r="6.45" fill="#ffb6c7"/><circle cx="612.88" cy="96.77" r="6.45" fill="#6b84ec"/><circle cx="677.4000000000001" cy="96.77" r="6.45" fill="#ff426f"/><circle cx="741.9100000000001" cy="96.77" r="6.45" fill="#e8ecfc"/><circle cx="32.26" cy="161.28" r="6.45" fill="#617cea"/><circle cx="96.77" cy="161.28" r="6.45" fill="#ff4470"/><circle cx="161.28" cy="161.28" r="6.45" fill="#ff4672"/><circle cx="225.79999999999998" cy="161.28" r="6.45" fill="#ced6f9"/><circle cx="290.31" cy="161.28" r="6.45" fill="#ff6b8f"/><circle cx="354.83" cy="161.28" r="6.45" fill="#ffd5df"/><circle cx="419.34" cy="161.28" r="6.45" fill="#f0f3fd"/><circle cx="483.86" cy="161.28" r="6.45" fill="#c3cdf7"/><circle cx="548.37" cy="161.28" r="6.45" fill="#284ce3"/><circle cx="612.88" cy="161.28" r="6.45" fill="#fff8fa"/><circle cx="677.4000000000001" cy="161.28" r="6.45" fill="#2f52e4"/><circle cx="741.9100000000001" cy="161.28" r="6.45" fill="#dfe4fb"/><circle cx="32.26" cy="225.79999999999998" r="6.45" fill="#a1b1f3"/><circle cx="96.77" cy="225.79999999999998" r="6.45" fill="#ff88a4"/><circle cx="161.28" cy="225.79999999999998" r="6.45" fill="#dbe1fa"/><circle cx="225.79999999999998" cy="225.79999999999998" r="6.45" fill="#9faff3"/><circle cx="290.31" cy="225.79999999999998" r="6.45" fill="#9daef2"/><circle cx="354.83" cy="225.79999999999998" r="6.45" fill="#ff6f91"/><circle cx="419.34" cy="225.79999999999998" r="6.45" fill="#ff3968"/><circle cx="483.86" cy="225.79999999999998" r="6.45" fill="#fffafb"/><circle cx="548.37" cy="225.79999999999998" r="6.45" fill="#ffb8c9"/><circle cx="612.88" cy="225.79999999999998" r="6.45" fill="#ffa4b9"/><circle cx="677.4000000000001" cy="225.79999999999998" r="6.45" fill="#6982eb"/><circle cx="741.9100000000001" cy="225.79999999999998" r="6.45" fill="#2146e2"/><circle cx="32.26" cy="290.31" r="6.45" fill="#ff9cb3"/><circle cx="96.77" cy="290.31" r="6.45" fill="#ff88a4"/><circle cx="161.28" cy="290.31" r="6.45" fill="#bac5f6"/><circle cx="225.79999999999998" cy="290.31" r="6.45" fill="#859aef"/><circle cx="290.31" cy="290.31" r="6.45" fill="#ff8ea9"/><circle cx="354.83" cy="290.31" r="6.45" fill="#ffa6bb"/><circle cx="419.34" cy="290.31" r="6.45" fill="#ff5d84"/><circle cx="483.86" cy="290.31" r="6.45" fill="#ffd9e2"/><circle cx="548.37" cy="290.31" r="6.45" fill="#738bed"/><circle cx="612.88" cy="290.31" r="6.45" fill="#c8d2f8"/><circle cx="677.4000000000001" cy="290.31" r="6.45" fill="#ff819f"/><circle cx="741.9100000000001" cy="290.31" r="6.45" fill="#7c92ee"/><circle cx="32.26" cy="354.83" r="6.45" fill="#395be5"/><circle cx="96.77" cy="354.83" r="6.45" fill="#ff97af"/><circle cx="161.28" cy="354.83" r="6.45" fill="#4b69e8"/><circle cx="225.79999999999998" cy="354.83" r="6.45" fill="#4d6be8"/><circle cx="290.31" cy="354.83" r="6.45" fill="#ffcdd9"/><circle cx="354.83" cy="354.83" r="6.45" fill="#ffc6d4"/><circle cx="419.34" cy="354.83" r="6.45" fill="#ffa0b7"/><circle cx="483.86" cy="354.83" r="6.45" fill="#7d93ee"/><circle cx="548.37" cy="354.83" r="6.45" fill="#5874e9"/><circle cx="612.88" cy="354.83" r="6.45" fill="#ff6e91"/><circle cx="677.4000000000001" cy="354.83" r="6.45" fill="#8499ef"/><circle cx="741.9100000000001" cy="354.83" r="6.45" fill="#ffecf0"/><circle cx="32.26" cy="419.34" r="6.45" fill="#f8f9fe"/><circle cx="96.77" cy="419.34" r="6.45" fill="#ff6d90"/><circle cx="161.28" cy="419.34" r="6.45" fill="#ffc1cf"/><circle cx="225.79999999999998" cy="419.34" r="6.45" fill="#fff0f4"/><circle cx="290.31" cy="419.34" r="6.45" fill="#ff7394"/><circle cx="354.83" cy="419.34" r="6.45" fill="#ff4974"/><circle cx="419.34" cy="419.34" r="6.45" fill="#3254e4"/><circle cx="483.86" cy="419.34" r="6.45" fill="#ffbdcd"/><circle cx="548.37" cy="419.34" r="6.45" fill="#fffefe"/><circle cx="612.88" cy="419.34" r="6.45" fill="#ffa9bd"/><circle cx="677.4000000000001" cy="419.34" r="6.45" fill="#c6d0f8"/><circle cx="741.9100000000001" cy="419.34" r="6.45" fill="#637eeb"/></g></svg>